<svg id="visual" viewBox="0 0 900 600" width="900" height="600" xmlns="http://www.w3.org/2000/svg" xmlns:xlink="http://www.w3.org/1999/xlink" version="1.1"><rect x="0" y="0" width="900" height="600" fill="#931C1C"></rect><path d="M506 0L618 50L593 100L618 150L514 200L629 250L537 300L511 350L570 400L569 450L607 500L536 550L525 600L0 600L0 550L0 500L0 450L0 400L0 350L0 300L0 250L0 200L0 150L0 100L0 50L0 0Z" fill="#f5730a"></path><path d="M535 0L528 50L429 100L421 150L475 200L485 250L505 300L528 350L544 400L406 450L528 500L478 550L520 600L0 600L0 550L0 500L0 450L0 400L0 350L0 300L0 250L0 200L0 150L0 100L0 50L0 0Z" fill="#c74c08"></path><path d="M377 0L338 50L331 100L429 150L380 200L417 250L411 300L370 350L399 400L379 450L445 500L457 550L445 600L0 600L0 550L0 500L0 450L0 400L0 350L0 300L0 250L0 200L0 150L0 100L0 50L0 0Z" fill="#992503"></path><path d="M316 0L337 50L277 100L256 150L303 200L378 250L288 300L280 350L351 400L366 450L378 500L370 550L303 600L0 600L0 550L0 500L0 450L0 400L0 350L0 300L0 250L0 200L0 150L0 100L0 50L0 0Z" fill="#871400"></path><path d="M256 0L289 50L283 100L294 150L194 200L293 250L299 300L247 350L295 400L252 450L300 500L238 550L278 600L0 600L0 550L0 500L0 450L0 400L0 350L0 300L0 250L0 200L0 150L0 100L0 50L0 0Z" fill="#992503"></path><path d="M151 0L149 50L170 100L118 150L128 200L156 250L150 300L189 350L136 400L188 450L202 500L195 550L142 600L0 600L0 550L0 500L0 450L0 400L0 350L0 300L0 250L0 200L0 150L0 100L0 50L0 0Z" fill="#c74c08"></path><path d="M89 0L123 50L46 100L53 150L48 200L103 250L64 300L108 350L127 400L92 450L81 500L65 550L116 600L0 600L0 550L0 500L0 450L0 400L0 350L0 300L0 250L0 200L0 150L0 100L0 50L0 0Z" fill="#f5730a"></path></svg>