<!-- Inline if you prefer -->
<svg class="google-icon" xmlns="http://www.w3.org/2000/svg" viewBox="0 0 533.5 544.3">
  <path fill="#4285f4" d="M533.5 278.4c0-17.6-1.4-35-4.1-52H272v98.7h146.9c-6.3 34.3-25 63.2-53.2 82.6v68h85.9c50.2-46.3 81-114.5 81-197.3z"/>
  <path fill="#34a853" d="M272 544.3c72.6 0 133.6-24.1 178.1-65.2l-85.9-68c-23.8 16-54.3 25.4-92.2 25.4-70.9 0-131-47.9-152.4-112.2H33.7v70.9C77.7 482.3 168.9 544.3 272 544.3z"/>
  <path fill="#fbbc04" d="M119.6 324.3c-9.2-27.2-9.2-56.7 0-83.9V169.5H33.7c-38 76-38 165.8 0 241.8l85.9-70.9z"/>
  <path fill="#ea4335" d="M272 107.7c39.5-.6 77.5 13.5 106.5 39.7l79.7-79.7C405.6 22.4 339.8-1.7 272 0 168.9 0 77.7 61.9 33.7 169.5l85.9 70.9C141 155.6 201.1 107.7 272 107.7z"/>
</svg>
